<?xml version="1.0" standalone="no"?>
<!DOCTYPE svg PUBLIC "-//W3C//DTD SVG 20010904//EN"
 "http://www.w3.org/TR/2001/REC-SVG-20010904/DTD/svg10.dtd">
<svg version="1.0" xmlns="http://www.w3.org/2000/svg"
 width="772.000000pt" height="772.000000pt" viewBox="0 0 772.000000 772.000000"
 preserveAspectRatio="xMidYMid meet">
<metadata>
Created by potrace 1.14, written by Peter Selinger 2001-2017
</metadata>
<g transform="translate(0.000000,772.000000) scale(0.100000,-0.100000)"
fill="#000000" stroke="none">
<path d="M3128 6349 c-70 -40 -108 -69 -108 -79 0 -12 -8 -17 -27 -16 -20 1
-279 -144 -865 -483 -767 -443 -838 -486 -838 -509 0 -20 -3 -23 -12 -14 -19
19 -31 15 -144 -51 l-107 -62 -1 -524 -1 -523 -310 -180 c-170 -98 -323 -192
-340 -209 l-30 -29 -5 -337 -5 -336 -78 -47 c-94 -55 -118 -88 -124 -173 -11
-133 53 -292 162 -403 107 -109 213 -141 300 -90 l41 25 90 -52 c85 -49 90
-54 121 -117 45 -92 138 -191 215 -229 76 -38 127 -40 187 -6 l43 25 89 -51
c77 -44 91 -56 108 -94 62 -141 197 -263 309 -281 31 -5 53 -1 97 20 l57 26
217 -126 c126 -72 241 -131 272 -139 70 -19 170 -19 241 0 40 10 253 128 718
396 364 210 678 388 698 395 48 17 118 17 173 0 24 -7 196 -101 381 -209 l337
-195 98 -3 98 -4 1108 639 1107 639 0 551 c0 303 -3 567 -6 586 -6 36 -6 36
-1987 1180 l-1982 1145 -95 3 -95 3 -107 -62z m806 -261 c287 -166 599 -346
694 -401 109 -64 168 -103 160 -108 -7 -3 -97 -19 -200 -35 -103 -15 -185 -31
-183 -35 3 -4 40 -27 82 -51 43 -24 236 -136 428 -247 193 -112 494 -287 670
-389 642 -371 1130 -655 1138 -662 5 -4 3 -11 -4 -15 -7 -5 -10 -4 -5 3 4 6
-1 10 -11 9 -18 -1 -203 104 -1048 591 -858 494 -1321 766 -1335 783 -13 15
-792 473 -1147 675 -68 38 -123 71 -123 74 0 3 42 29 93 57 92 53 92 53 181
53 l89 0 521 -302z m421 -633 c589 -340 1192 -688 1340 -774 149 -87 530 -307
847 -490 l577 -333 -309 -182 c-171 -99 -318 -188 -328 -197 -38 -33 -1017
-602 -1036 -602 -10 0 -555 312 -1681 965 -633 367 -670 389 -673 399 -2 5 -8
9 -14 9 -5 0 -24 11 -41 24 -33 24 -421 250 -1244 726 -260 150 -473 275 -473
279 0 4 374 223 832 487 l832 481 151 -87 c82 -48 632 -365 1220 -705z m-2958
-297 c78 -46 143 -85 143 -88 0 -3 -100 -21 -223 -39 -216 -33 -224 -34 -250
-16 -22 14 -27 25 -27 61 l0 43 103 60 c56 33 104 61 106 61 2 0 69 -37 148
-82z m5383 -1034 c0 -2 -9 0 -20 6 -11 6 -20 13 -20 16 0 2 9 0 20 -6 11 -6
20 -13 20 -16z m-6062 -985 c130 -64 263 -251 297 -418 15 -70 12 -108 -6 -80
-7 11 -9 11 -9 -2 0 -9 -7 -22 -15 -29 -13 -11 -15 -6 -15 32 0 181 -173 435
-315 462 l-30 6 30 -12 c64 -27 94 -49 151 -110 87 -93 154 -245 154 -347 0
-46 -1 -46 -61 -81 -57 -33 -99 -80 -99 -111 0 -8 8 2 18 21 22 44 75 80 121
81 31 1 32 2 12 8 -22 6 -6 17 116 86 78 44 140 82 138 84 -2 2 -30 -11 -61
-29 l-57 -32 20 34 c25 42 84 75 150 84 46 5 61 2 111 -22 73 -35 178 -140
227 -229 43 -77 85 -200 85 -250 0 -44 -17 -46 -23 -2 -3 28 -4 26 -5 -10 -2
-45 -22 -61 -22 -19 0 14 -4 27 -8 30 -4 2 -6 -10 -4 -29 3 -26 -1 -36 -18
-45 -12 -6 -20 -14 -17 -16 2 -3 67 31 144 76 159 91 183 96 272 55 140 -65
271 -282 271 -447 -1 -93 -25 -139 -95 -179 -31 -17 -54 -33 -52 -36 5 -5 74
33 101 56 33 28 56 92 56 158 0 173 -132 388 -283 458 -70 33 -118 32 -184 -5
-29 -16 -55 -30 -58 -30 -4 0 2 14 12 31 21 37 79 69 125 69 26 0 30 3 18 11
-21 14 54 1 99 -18 217 -88 396 -474 300 -643 -11 -19 -17 -26 -13 -15 8 25
16 76 8 55 -28 -75 -41 -93 -81 -117 -33 -19 -53 -24 -81 -20 -30 4 -51 -3
-114 -39 -42 -24 -79 -44 -82 -44 -3 0 0 14 6 31 6 16 8 32 5 35 -3 3 -8 -8
-12 -24 -3 -16 -18 -41 -34 -56 -40 -39 -82 -48 -140 -30 -52 15 -135 70 -127
83 6 10 -38 54 -46 45 -5 -5 -43 40 -62 74 -17 29 4 9 28 -29 15 -22 30 -38
33 -36 3 3 -6 21 -20 39 -14 18 -40 65 -58 102 -60 129 -50 285 22 322 35 17
96 18 128 0 24 -13 24 -14 -34 -47 -70 -41 -104 -81 -86 -102 9 -12 8 -16 -4
-21 -39 -15 25 -192 81 -226 19 -11 39 -31 44 -44 12 -31 45 -49 76 -42 13 4
32 1 42 -5 16 -10 29 -7 74 19 31 18 58 32 62 32 3 0 6 -12 6 -27 0 -35 -32
-88 -62 -104 -48 -26 -138 -7 -191 39 -9 8 -20 12 -23 9 -4 -3 15 -20 41 -36
155 -98 285 5 246 196 -13 66 -7 85 7 21 6 -24 10 -33 11 -20 3 62 -53 176
-137 281 -37 45 -143 121 -171 121 -8 0 8 -11 36 -25 52 -26 160 -131 182
-175 l12 -25 -18 25 c-134 188 -312 239 -379 107 -17 -32 -22 -125 -11 -187 6
-32 6 -33 -4 -10 -18 39 -15 169 4 212 19 46 69 78 122 79 l40 1 -35 8 c-57
14 -117 -30 -143 -105 -12 -34 -25 -47 -93 -87 -43 -25 -81 -45 -83 -42 -2 2
-17 -8 -33 -21 -68 -58 -169 -33 -271 68 -34 33 -50 50 -34 37 15 -13 27 -19
27 -13 0 13 -42 52 -54 50 -5 -1 -15 9 -24 23 l-14 25 22 -25 c27 -31 24 -23
-21 65 -60 115 -73 217 -40 292 31 67 98 88 186 58 13 -4 12 -1 -5 9 -33 20
-103 20 -141 0 -62 -31 -87 -152 -54 -259 8 -27 12 -51 10 -53 -10 -10 -35
109 -35 167 0 53 -2 62 -12 49 -7 -8 -35 -28 -63 -43 -27 -16 -61 -35 -74 -44
-23 -15 -23 -14 -17 9 7 23 5 22 -13 -5 -23 -34 -75 -65 -108 -65 -50 0 -131
41 -189 96 -53 51 -54 52 -7 11 145 -124 276 -113 313 25 7 23 9 67 7 97 -4
39 -3 47 2 26 8 -29 9 -29 10 -4 2 50 -69 215 -101 236 -7 3 -8 1 -4 -5 11
-18 0 -14 -15 5 -10 11 -10 14 -1 9 30 -18 7 16 -46 66 -59 57 -127 98 -159
98 -10 -1 -1 -7 20 -14 49 -18 104 -56 148 -103 23 -25 15 -21 -25 15 -90 78
-179 101 -243 62 -50 -30 -67 -72 -67 -165 l0 -80 -9 53 c-22 120 43 232 135
232 17 0 19 3 9 9 -9 6 28 32 130 90 79 44 139 81 134 81 -6 0 -34 -13 -62
-29 -60 -33 -66 -27 -23 23 60 68 155 82 248 35z m3533 21 c40 -8 120 -49 328
-171 152 -89 280 -164 284 -168 4 -4 1 -8 -8 -8 -8 0 -15 3 -15 7 0 4 -6 7
-12 7 -7 0 -114 57 -238 128 -282 161 -304 171 -365 180 -76 10 -139 -10 -260
-80 -60 -34 -346 -199 -635 -366 -289 -167 -551 -317 -583 -333 -51 -26 -70
-30 -160 -32 -85 -2 -113 1 -167 20 -64 23 -442 239 -448 257 -2 5 -9 6 -15 2
-7 -3 -9 -3 -5 2 4 4 0 14 -10 22 -19 16 -20 17 241 -132 104 -59 212 -116
240 -127 67 -26 201 -28 269 -4 26 9 298 162 605 339 736 426 759 439 812 453
58 16 76 16 142 4z m-3908 -271 c20 -5 37 -13 37 -17 0 -4 -26 -22 -59 -40
-32 -17 -64 -38 -70 -46 -18 -22 -31 -75 -20 -82 6 -4 6 -10 1 -17 -14 -18 14
-113 48 -167 39 -61 74 -93 97 -88 11 2 28 -8 41 -24 32 -37 60 -36 138 8 l64
36 0 -26 c0 -76 -63 -132 -136 -122 -60 8 -98 29 -162 90 -30 28 -57 49 -59
46 -3 -3 -12 6 -21 20 l-14 25 21 -25 c30 -36 26 -18 -10 40 -70 113 -91 274
-46 341 37 56 77 69 150 48z m6562 -78 c-14 -12 -733 -428 -812 -470 -13 -6
-23 -10 -23 -7 0 6 828 486 839 486 3 0 1 -4 -4 -9z m-6335 -101 c6 -11 8 -20
6 -20 -3 0 -10 9 -16 20 -6 11 -8 20 -6 20 3 0 10 -9 16 -20z m4573 3 c-7 -2
-19 -2 -25 0 -7 3 -2 5 12 5 14 0 19 -2 13 -5z m-4514 -143 c0 -8 -7 1 -14 20
-18 46 -17 64 0 25 8 -16 14 -37 14 -45z m-429 -25 c0 -5 -5 -3 -10 5 -5 8
-10 20 -10 25 0 6 5 3 10 -5 5 -8 10 -19 10 -25z m5860 -220 c0 -2 -10 -9 -22
-15 -22 -11 -22 -10 -4 4 21 17 26 19 26 11z m-5196 -172 c9 -18 14 -33 12
-33 -6 0 -36 55 -36 66 0 11 5 3 24 -33z m1046 -257 c0 -12 -5 -7 -19 24 -11
24 -11 24 3 6 9 -11 16 -24 16 -30z m-391 -126 c11 -24 11 -24 -3 -6 -9 11
-16 24 -16 30 0 12 5 7 19 -24z"/>
<path d="M3003 5928 c-51 -25 -35 -81 27 -98 55 -15 117 2 133 37 10 23 8 28
-16 49 -31 26 -102 32 -144 12z"/>
<path d="M3155 5654 c-52 -18 -85 -56 -85 -98 0 -63 77 -106 190 -106 114 0
190 43 190 108 0 42 -41 86 -96 101 -53 15 -151 13 -199 -5z m189 -98 c33 -21
34 -59 4 -80 -31 -22 -146 -22 -176 0 -35 24 -26 64 18 87 42 22 116 18 154
-7z"/>
<path d="M3200 5541 c-22 -17 -23 -21 -10 -38 8 -10 20 -21 25 -25 19 -14 80
-8 104 11 21 16 22 20 10 39 -8 12 -17 22 -21 22 -5 0 -3 -9 4 -19 17 -28 -5
-51 -52 -51 -47 0 -80 30 -55 50 9 7 33 17 53 21 l37 7 -35 1 c-20 0 -45 -7
-60 -18z"/>
<path d="M2470 5613 c-58 -11 -80 -68 -38 -97 29 -20 100 -20 138 -1 76 39 -3
116 -100 98z"/>
<path d="M3880 5443 c-56 -22 -67 -74 -20 -98 61 -32 160 -8 160 39 0 12 -9
31 -20 41 -20 18 -93 29 -120 18z"/>
<path d="M1890 5283 c-77 -28 -58 -98 29 -110 68 -9 131 30 115 72 -13 34 -95
56 -144 38z"/>
<path d="M2390 5214 c-56 -24 -80 -53 -80 -94 0 -68 74 -110 192 -110 113 1
188 44 188 110 0 67 -75 110 -190 109 -45 0 -89 -6 -110 -15z m180 -92 c25
-12 36 -26 41 -50 4 -18 4 -31 2 -28 -3 3 -15 -1 -27 -9 -29 -21 -144 -20
-174 1 -54 37 3 104 88 104 19 0 51 -8 70 -18z"/>
<path d="M2441 5101 c-21 -16 -22 -20 -10 -39 8 -12 18 -22 23 -22 5 0 2 8 -8
18 -15 18 -15 20 1 35 10 8 34 17 53 20 l35 4 -35 1 c-20 1 -45 -6 -59 -17z"/>
<path d="M2552 5090 c16 -26 2 -41 -49 -50 l-38 -8 35 -1 c21 0 44 7 58 19 20
16 21 22 10 39 -7 12 -16 21 -20 21 -5 0 -3 -9 4 -20z"/>
<path d="M4706 4929 c-14 -11 -26 -27 -26 -34 0 -28 51 -55 104 -55 85 0 122
44 76 90 -28 28 -117 28 -154 -1z"/>
<path d="M2722 4774 c-12 -8 -22 -26 -22 -39 0 -34 36 -55 95 -55 59 0 95 21
95 55 0 34 -36 55 -95 55 -30 0 -60 -6 -73 -16z"/>
<path d="M5566 4439 c-14 -11 -26 -28 -26 -38 0 -65 158 -82 191 -20 33 62
-101 109 -165 58z"/>
<path d="M3576 4279 c-32 -25 -33 -54 -3 -74 57 -37 148 -25 170 22 10 22 8
28 -16 49 -37 32 -112 33 -151 3z"/>
<path d="M5824 4111 c-91 -42 -111 -106 -50 -159 91 -80 298 -61 343 32 15 32
15 36 -3 67 -28 48 -85 73 -174 77 -57 2 -85 -2 -116 -17z m159 -82 c80 -22
83 -89 5 -110 -132 -35 -235 62 -112 106 48 17 59 18 107 4z"/>
<path d="M5877 3999 c-25 -19 -26 -21 -11 -45 13 -19 25 -24 59 -24 26 0 51 7
65 18 20 16 21 21 9 40 -8 12 -23 22 -34 21 -14 0 -16 -2 -5 -6 8 -3 21 -12
27 -21 17 -21 -11 -41 -57 -42 -64 0 -80 38 -27 64 17 8 25 16 16 16 -9 0 -28
-9 -42 -21z"/>
<path d="M6445 3961 c-87 -38 -52 -113 51 -113 121 0 127 105 7 118 -21 2 -47
0 -58 -5z"/>
<path d="M4460 3803 c-28 -10 -50 -36 -50 -59 0 -34 36 -54 98 -54 43 0 57 5
78 25 24 24 25 28 11 48 -26 39 -88 58 -137 40z"/>
<path d="M5072 3678 c-93 -31 -120 -111 -58 -166 89 -78 292 -60 340 31 23 43
10 78 -44 113 -35 24 -54 28 -123 30 -45 2 -97 -2 -115 -8z m185 -103 c32 -21
30 -60 -4 -82 -17 -12 -46 -18 -83 -18 -68 0 -110 23 -110 61 0 55 133 81 197
39z"/>
<path d="M5117 3559 c-25 -19 -26 -21 -11 -45 13 -19 25 -24 59 -24 26 0 51 7
65 18 20 16 21 21 9 40 -8 12 -23 22 -34 21 -14 0 -16 -2 -5 -6 8 -3 21 -12
27 -21 17 -21 -11 -41 -57 -42 -64 0 -80 38 -27 64 17 8 25 16 16 16 -9 0 -28
-9 -42 -21z"/>
<path d="M5875 3630 c-55 -22 -57 -78 -5 -100 42 -17 117 -7 143 18 53 54 -53
117 -138 82z"/>
<path d="M5284 3287 c-34 -30 -26 -63 22 -83 46 -19 83 -18 122 6 39 24 43 61
10 84 -36 25 -121 21 -154 -7z"/>
<path d="M635 3146 c59 -19 95 -39 148 -86 91 -80 170 -213 203 -339 13 -50
13 -51 9 -13 -13 103 -97 252 -195 346 -59 56 -147 106 -185 105 -11 0 -2 -6
20 -13z"/>
<path d="M583 3113 c9 -2 23 -2 30 0 6 3 -1 5 -18 5 -16 0 -22 -2 -12 -5z"/>
<path d="M1302 2764 c101 -31 219 -149 289 -289 22 -44 37 -69 33 -55 -20 74
-103 200 -174 263 -55 49 -142 97 -174 96 -12 0 0 -7 26 -15z"/>
<path d="M1262 2731 c147 -28 286 -183 343 -384 l15 -52 -5 45 c-7 57 -62 173
-114 242 -69 91 -158 148 -239 154 l-47 3 47 -8z"/>
<path d="M1026 2525 c27 -13 69 -43 94 -66 l45 -41 -45 35 c-65 49 -68 50 -98
29 -15 -11 -46 -29 -68 -40 -80 -41 -95 -137 -40 -257 32 -71 102 -148 127
-140 11 4 18 -1 22 -14 3 -13 17 -22 41 -26 29 -6 46 -1 101 30 37 20 69 34
72 32 3 -3 2 -18 -1 -34 -26 -119 -137 -144 -251 -58 -51 40 -67 45 -39 14 57
-63 165 -94 227 -64 57 27 81 86 75 186 -3 43 -2 76 1 73 3 -3 8 -44 12 -92
l6 -87 1 71 c3 95 -25 181 -86 275 -65 100 -182 199 -234 199 -6 0 10 -11 38
-25z m188 -177 c22 -39 11 -29 -29 27 -17 23 -21 33 -9 23 10 -9 28 -32 38
-50z"/>
<path d="M653 2455 c0 -22 2 -30 4 -17 2 12 2 30 0 40 -3 9 -5 -1 -4 -23z"/>
<path d="M641 2384 c0 -11 3 -14 6 -6 3 7 2 16 -1 19 -3 4 -6 -2 -5 -13z"/>
<path d="M1980 2378 c42 -16 74 -40 135 -102 80 -81 127 -154 166 -259 10 -28
17 -38 14 -22 -18 92 -125 261 -208 327 -54 42 -121 78 -147 77 -8 0 10 -9 40
-21z"/>
<path d="M1632 2380 c0 -8 4 -26 8 -40 6 -20 8 -21 8 -5 0 11 -3 29 -8 40 -5
12 -8 14 -8 5z"/>
<path d="M1291 1993 c-1 -6 -4 -20 -7 -30 -5 -17 -5 -17 6 0 6 10 9 23 6 30
-3 9 -5 9 -5 0z"/>
<path d="M2302 1940 c0 -14 2 -19 5 -12 2 6 2 18 0 25 -3 6 -5 1 -5 -13z"/>
<path d="M2313 1855 c0 -27 2 -38 4 -22 2 15 2 37 0 50 -2 12 -4 0 -4 -28z"/>
<path d="M1963 1695 c0 -27 2 -38 4 -22 2 15 2 37 0 50 -2 12 -4 0 -4 -28z"/>
</g>
</svg>
